<svg width="39" height="37" viewBox="0 0 39 37" fill="none" xmlns="http://www.w3.org/2000/svg">
<path d="M36.5282 20.8435V33.5074C36.5282 35.1602 35.0909 36.5048 33.3242 36.5048H5.12915C3.36247 36.5048 1.92517 35.1602 1.92517 33.5074V20.8435C1.92517 20.5124 2.21208 20.244 2.56596 20.244C2.91984 20.244 3.20676 20.5124 3.20676 20.8435V33.5074C3.20676 34.4991 4.06911 35.3059 5.12915 35.3059H12.0978V25.1897C12.0978 23.5369 13.5351 22.1923 15.3018 22.1923H23.1516C24.9182 22.1923 26.3555 23.5369 26.3555 25.1897V32.908C26.3555 33.239 26.0686 33.5074 25.7147 33.5074C25.3609 33.5074 25.0739 33.239 25.0739 32.908V25.1897C25.0739 24.1981 24.2115 23.3912 23.1516 23.3912H15.3018C14.2418 23.3912 13.3794 24.1981 13.3794 25.1897V35.3059H18.5859V25.8641C18.5859 25.533 18.8728 25.2646 19.2267 25.2646C19.5806 25.2646 19.8675 25.533 19.8675 25.8641V35.3059H33.3242C34.3842 35.3059 35.2466 34.4991 35.2466 33.5074V20.8435C35.2466 20.5124 35.5335 20.244 35.8874 20.244C36.2413 20.244 36.5282 20.5123 36.5282 20.8435ZM4.16795 10.1278C4.16795 10.4588 4.45487 10.7273 4.80875 10.7273C39.6735 10.7273 37.9449 10.7856 38.1996 10.6028C38.3328 10.507 38.4198 10.3687 38.4437 10.2107C38.4794 9.96982 38.7094 10.5623 34.2325 0.897243C34.1309 0.677984 33.9 0.536133 33.6445 0.536133H4.80867C4.55331 0.536133 4.32223 0.678059 4.22074 0.897243L0.0555615 9.88942C-0.0180501 10.0484 0.00269573 9.79605 0.00269573 13.8469C0.00734151 16.5734 2.37885 18.7917 5.28927 18.7917C7.29008 18.7917 9.03617 17.7433 9.93368 16.2022C11.9383 19.6485 17.2183 19.6523 19.2266 16.2045C21.2333 19.6495 26.511 19.6503 28.5182 16.2045C29.415 17.7443 31.1613 18.7917 33.1639 18.7917C36.079 18.7917 38.4505 16.5731 38.4505 13.846C38.4505 13.5149 38.1636 13.2465 37.8097 13.2465C37.4558 13.2465 37.1689 13.5149 37.1689 13.846C37.1689 15.9119 35.3723 17.5927 33.1639 17.5927C30.9556 17.5927 29.1589 15.9119 29.1589 13.846C29.1589 13.5149 28.872 13.2465 28.5182 13.2465C28.1643 13.2465 27.8774 13.5149 27.8774 13.846C27.8774 15.9119 26.0807 17.5927 23.8724 17.5927C21.664 17.5927 19.8674 15.9119 19.8674 13.846C19.8674 13.5149 19.5805 13.2465 19.2266 13.2465C18.8727 13.2465 18.5858 13.5149 18.5858 13.846C18.5858 15.9119 16.7892 17.5927 14.5808 17.5927C12.4216 17.5927 10.5758 15.9693 10.5758 13.816C10.5758 13.4849 10.2889 13.2165 9.93505 13.2165C9.58117 13.2165 9.29425 13.4849 9.29425 13.816C9.29425 15.9511 7.46005 17.5927 5.28927 17.5927C3.08445 17.5927 1.28773 15.9115 1.28429 13.846V10.252L5.22943 1.73509H33.2239L36.8337 9.52831H4.80875C4.45479 9.52831 4.16795 9.79665 4.16795 10.1278Z" fill="#007FFC"/>
</svg>
