<svg width="196" height="35" viewBox="0 0 196 35" fill="none" xmlns="http://www.w3.org/2000/svg">
<path d="M21.5934 16.4064C21.3329 16.4665 21.1489 16.6988 21.1489 16.9656M21.5934 16.4064L21.6496 16.65M21.5934 16.4064C21.5933 16.4064 21.5932 16.4064 21.593 16.4065L21.6496 16.65M21.5934 16.4064C24.2485 15.789 26.1017 13.4561 26.1017 10.731C26.1017 7.51494 23.4851 4.89828 20.2692 4.89828C17.5248 4.89828 15.1239 6.8465 14.5619 9.5284C14.5063 9.79432 14.2717 9.9848 14.0001 9.9848C13.7285 9.9848 13.4938 9.79432 13.4382 9.52841C12.8761 6.8465 10.4752 4.89828 7.7308 4.89828C4.51495 4.89828 1.89828 7.51494 1.89828 10.731C1.89828 13.4561 3.7515 15.789 6.40659 16.4064L21.1489 16.9656M21.1489 16.9656C21.1489 17.2322 21.3328 17.4644 21.593 17.5247L21.6496 17.2812M21.1489 16.9656L21.6496 17.2812M21.6496 16.65C21.5029 16.6839 21.3989 16.8149 21.3989 16.9656C21.3989 17.1163 21.5029 17.2473 21.6496 17.2812M21.6496 16.65V17.2812M21.6496 17.2812C24.4181 17.9247 26.3517 20.3586 26.3517 23.2002C26.3517 26.5543 23.6231 29.2829 20.2692 29.2829C17.4067 29.2829 14.9035 27.2519 14.3173 24.454M21.6496 17.2812L21.5934 17.5248C24.2485 18.1421 26.1017 20.475 26.1017 23.2002C26.1017 26.4162 23.4851 29.0329 20.2692 29.0329C17.5248 29.0329 15.124 27.0847 14.562 24.4029M14.3173 24.454L14.562 24.4029M14.3173 24.454L14.5619 24.4028C14.562 24.4028 14.562 24.4029 14.562 24.4029M14.3173 24.454C14.2859 24.304 14.1534 24.1964 14.0001 24.1964C13.8467 24.1964 13.7142 24.304 13.6829 24.454M14.562 24.4029L13.4382 24.4027L13.6829 24.454M13.6829 24.454C13.0965 27.2519 10.5933 29.2829 7.7308 29.2829C4.37687 29.2829 1.64828 26.5543 1.64828 23.2002C1.64828 20.3586 3.58188 17.9247 6.35036 17.2812M13.6829 24.454L13.4382 24.4029C12.876 27.0847 10.4751 29.0329 7.7308 29.0329C4.51495 29.0329 1.89828 26.4162 1.89828 23.2002C1.89828 20.475 3.75159 18.142 6.40678 17.5247C6.40684 17.5247 6.4069 17.5247 6.40696 17.5247L6.35036 17.2812M6.35036 17.2812C6.49707 17.2473 6.60106 17.1163 6.60106 16.9656C6.60106 16.8149 6.49707 16.6839 6.35036 16.65V17.2812ZM27.25 10.731C27.25 6.88143 24.1186 3.75 20.2692 3.75C17.5704 3.75 15.1516 5.32181 14.0001 7.66239C12.8484 5.32181 10.4294 3.75 7.7308 3.75C3.88142 3.75 0.75 6.88143 0.75 10.731C0.75 13.4277 2.26822 15.8058 4.5914 16.9656C2.26822 18.1253 0.75 20.5034 0.75 23.2002C0.75 27.0497 3.88142 30.1812 7.7308 30.1812C10.4294 30.1812 12.8484 28.6093 14.0001 26.2688C15.1516 28.6093 17.5704 30.1812 20.2692 30.1812C24.1186 30.1812 27.25 27.0497 27.25 23.2002C27.25 20.5034 25.7318 18.1253 23.4086 16.9656C25.7318 15.8058 27.25 13.4277 27.25 10.731Z" fill="#3DB370" stroke="#3DB370" stroke-width="0.5"/>
<path d="M47.335 9.72V16.965H55.945C56.435 16.965 56.8317 17.1167 57.135 17.42C57.4617 17.7233 57.625 18.12 57.625 18.61C57.625 19.03 57.4617 19.3917 57.135 19.695C56.8317 19.9983 56.435 20.15 55.945 20.15H47.335V29.32C47.335 29.7867 47.16 30.1833 46.81 30.51C46.4833 30.8367 46.0867 31 45.62 31C45.13 31 44.7217 30.8367 44.395 30.51C44.0683 30.1833 43.905 29.7867 43.905 29.32V8.18C43.905 7.71333 44.0683 7.31666 44.395 6.99C44.7217 6.66333 45.1183 6.5 45.585 6.5H57.52C58.01 6.5 58.4067 6.65167 58.71 6.955C59.0367 7.25833 59.2 7.655 59.2 8.145C59.2 8.565 59.0367 8.93833 58.71 9.265C58.3833 9.56833 57.9867 9.72 57.52 9.72H47.335ZM72.0682 12.24C72.6749 12.24 73.1999 12.4033 73.6432 12.73C74.0866 13.0333 74.3082 13.4183 74.3082 13.885C74.3082 14.445 74.1566 14.8767 73.8532 15.18C73.5732 15.46 73.2232 15.6 72.8032 15.6C72.5932 15.6 72.2782 15.53 71.8582 15.39C71.3682 15.2267 70.9832 15.145 70.7032 15.145C69.9799 15.145 69.2682 15.4017 68.5682 15.915C67.8916 16.405 67.3316 17.0933 66.8882 17.98C66.4682 18.8433 66.2582 19.8117 66.2582 20.885V29.32C66.2582 29.7867 66.0949 30.1833 65.7682 30.51C65.4649 30.8367 65.0682 31 64.5782 31C64.0882 31 63.6916 30.8483 63.3882 30.545C63.0849 30.2183 62.9332 29.81 62.9332 29.32V14.34C62.9332 13.8733 63.0849 13.4767 63.3882 13.15C63.7149 12.8233 64.1116 12.66 64.5782 12.66C65.0682 12.66 65.4649 12.8233 65.7682 13.15C66.0949 13.4767 66.2582 13.8733 66.2582 14.34V16.125C66.7716 14.9817 67.5416 14.06 68.5682 13.36C69.5949 12.6367 70.7616 12.2633 72.0682 12.24ZM92.7051 21.13C92.6818 21.55 92.5068 21.9117 92.1801 22.215C91.8535 22.495 91.4685 22.635 91.0251 22.635H78.7051C78.8685 24.3383 79.5101 25.7033 80.6301 26.73C81.7735 27.7567 83.1618 28.27 84.7951 28.27C85.9151 28.27 86.8251 28.1067 87.5251 27.78C88.2251 27.4533 88.8435 27.0333 89.3801 26.52C89.7301 26.31 90.0685 26.205 90.3951 26.205C90.7918 26.205 91.1185 26.345 91.3751 26.625C91.6551 26.905 91.7951 27.2317 91.7951 27.605C91.7951 28.095 91.5618 28.5383 91.0951 28.935C90.4185 29.6117 89.5201 30.1833 88.4001 30.65C87.2801 31.1167 86.1368 31.35 84.9701 31.35C83.0801 31.35 81.4118 30.9533 79.9651 30.16C78.5418 29.3667 77.4335 28.2583 76.6401 26.835C75.8701 25.4117 75.4851 23.8017 75.4851 22.005C75.4851 20.045 75.8818 18.33 76.6751 16.86C77.4918 15.3667 78.5535 14.2233 79.8601 13.43C81.1901 12.6367 82.6135 12.24 84.1301 12.24C85.6235 12.24 87.0235 12.625 88.3301 13.395C89.6368 14.165 90.6868 15.2267 91.4801 16.58C92.2735 17.9333 92.6818 19.45 92.7051 21.13ZM84.1301 15.32C82.8235 15.32 81.6918 15.6933 80.7351 16.44C79.7785 17.1633 79.1485 18.295 78.8451 19.835H89.1701V19.555C89.0535 18.3183 88.4935 17.3033 87.4901 16.51C86.5101 15.7167 85.3901 15.32 84.1301 15.32ZM112.666 21.13C112.643 21.55 112.468 21.9117 112.141 22.215C111.814 22.495 111.429 22.635 110.986 22.635H98.6661C98.8294 24.3383 99.4711 25.7033 100.591 26.73C101.734 27.7567 103.123 28.27 104.756 28.27C105.876 28.27 106.786 28.1067 107.486 27.78C108.186 27.4533 108.804 27.0333 109.341 26.52C109.691 26.31 110.029 26.205 110.356 26.205C110.753 26.205 111.079 26.345 111.336 26.625C111.616 26.905 111.756 27.2317 111.756 27.605C111.756 28.095 111.523 28.5383 111.056 28.935C110.379 29.6117 109.481 30.1833 108.361 30.65C107.241 31.1167 106.098 31.35 104.931 31.35C103.041 31.35 101.373 30.9533 99.9261 30.16C98.5027 29.3667 97.3944 28.2583 96.6011 26.835C95.8311 25.4117 95.4461 23.8017 95.4461 22.005C95.4461 20.045 95.8427 18.33 96.6361 16.86C97.4527 15.3667 98.5144 14.2233 99.8211 13.43C101.151 12.6367 102.574 12.24 104.091 12.24C105.584 12.24 106.984 12.625 108.291 13.395C109.598 14.165 110.648 15.2267 111.441 16.58C112.234 17.9333 112.643 19.45 112.666 21.13ZM104.091 15.32C102.784 15.32 101.653 15.6933 100.696 16.44C99.7394 17.1633 99.1094 18.295 98.8061 19.835H109.131V19.555C109.014 18.3183 108.454 17.3033 107.451 16.51C106.471 15.7167 105.351 15.32 104.091 15.32ZM125.662 12.345C129.769 12.345 131.822 14.8883 131.822 19.975V29.32C131.822 29.7867 131.659 30.1833 131.332 30.51C131.029 30.8367 130.632 31 130.142 31C129.675 31 129.279 30.8367 128.952 30.51C128.649 30.1833 128.497 29.7867 128.497 29.32V19.975C128.497 16.9417 127.214 15.425 124.647 15.425C123.27 15.425 122.127 15.8683 121.217 16.755C120.307 17.6183 119.852 18.6917 119.852 19.975V29.32C119.852 29.7867 119.689 30.1833 119.362 30.51C119.059 30.8367 118.662 31 118.172 31C117.682 31 117.285 30.8483 116.982 30.545C116.679 30.2183 116.527 29.81 116.527 29.32V6.78C116.527 6.31333 116.679 5.91667 116.982 5.59C117.309 5.26333 117.705 5.1 118.172 5.1C118.662 5.1 119.059 5.26333 119.362 5.59C119.689 5.91667 119.852 6.31333 119.852 6.78V15.635C120.435 14.725 121.252 13.955 122.302 13.325C123.352 12.6717 124.472 12.345 125.662 12.345ZM151.671 12.415C152.161 12.415 152.557 12.5783 152.861 12.905C153.187 13.2083 153.351 13.6167 153.351 14.13V29.32C153.351 29.7867 153.187 30.1833 152.861 30.51C152.557 30.8367 152.161 31 151.671 31C151.181 31 150.784 30.8483 150.481 30.545C150.177 30.2183 150.026 29.81 150.026 29.32V28.41C149.419 29.2267 148.591 29.9267 147.541 30.51C146.491 31.07 145.359 31.35 144.146 31.35C142.559 31.35 141.112 30.9417 139.806 30.125C138.522 29.3083 137.507 28.1767 136.761 26.73C136.037 25.26 135.676 23.615 135.676 21.795C135.676 19.975 136.037 18.3417 136.761 16.895C137.507 15.425 138.522 14.2817 139.806 13.465C141.089 12.6483 142.501 12.24 144.041 12.24C145.277 12.24 146.421 12.4967 147.471 13.01C148.544 13.5233 149.396 14.1767 150.026 14.97V14.13C150.026 13.64 150.177 13.2317 150.481 12.905C150.784 12.5783 151.181 12.415 151.671 12.415ZM144.531 28.27C145.627 28.27 146.596 27.99 147.436 27.43C148.299 26.87 148.964 26.1 149.431 25.12C149.921 24.14 150.166 23.0317 150.166 21.795C150.166 20.5817 149.921 19.485 149.431 18.505C148.964 17.525 148.299 16.755 147.436 16.195C146.596 15.6117 145.627 15.32 144.531 15.32C143.434 15.32 142.454 15.6 141.591 16.16C140.751 16.72 140.086 17.49 139.596 18.47C139.129 19.45 138.896 20.5583 138.896 21.795C138.896 23.0317 139.129 24.14 139.596 25.12C140.086 26.1 140.751 26.87 141.591 27.43C142.454 27.99 143.434 28.27 144.531 28.27ZM167.64 12.24C171.84 12.24 173.94 14.76 173.94 19.8V29.32C173.94 29.7867 173.776 30.1833 173.45 30.51C173.146 30.8367 172.75 31 172.26 31C171.793 31 171.396 30.8367 171.07 30.51C170.766 30.1833 170.615 29.7867 170.615 29.32V19.835C170.615 18.4583 170.3 17.3617 169.67 16.545C169.04 15.7283 168.013 15.32 166.59 15.32C165.656 15.32 164.805 15.53 164.035 15.95C163.288 16.3467 162.693 16.895 162.25 17.595C161.83 18.2717 161.62 19.0183 161.62 19.835V29.32C161.62 29.7867 161.456 30.1833 161.13 30.51C160.826 30.8367 160.43 31 159.94 31C159.45 31 159.053 30.8483 158.75 30.545C158.446 30.2183 158.295 29.81 158.295 29.32V14.34C158.295 13.8733 158.446 13.4767 158.75 13.15C159.076 12.8233 159.473 12.66 159.94 12.66C160.43 12.66 160.826 12.8233 161.13 13.15C161.456 13.4767 161.62 13.8733 161.62 14.34V15.565C162.226 14.6317 163.066 13.85 164.14 13.22C165.236 12.5667 166.403 12.24 167.64 12.24ZM193.78 5.1C194.27 5.1 194.667 5.26333 194.97 5.59C195.297 5.89333 195.46 6.29 195.46 6.78V29.32C195.46 29.7867 195.297 30.1833 194.97 30.51C194.667 30.8367 194.27 31 193.78 31C193.29 31 192.893 30.8483 192.59 30.545C192.287 30.2183 192.135 29.81 192.135 29.32V28.34C191.552 29.18 190.723 29.8917 189.65 30.475C188.6 31.0583 187.468 31.35 186.255 31.35C184.668 31.35 183.233 30.9417 181.95 30.125C180.667 29.3083 179.652 28.1767 178.905 26.73C178.158 25.26 177.785 23.615 177.785 21.795C177.785 19.975 178.147 18.3417 178.87 16.895C179.617 15.425 180.632 14.2817 181.915 13.465C183.198 12.6483 184.61 12.24 186.15 12.24C187.387 12.24 188.53 12.4967 189.58 13.01C190.63 13.5233 191.482 14.1883 192.135 15.005V6.78C192.135 6.29 192.287 5.89333 192.59 5.59C192.893 5.26333 193.29 5.1 193.78 5.1ZM186.64 28.27C187.737 28.27 188.705 27.99 189.545 27.43C190.408 26.87 191.073 26.1 191.54 25.12C192.03 24.14 192.275 23.0317 192.275 21.795C192.275 20.5817 192.03 19.485 191.54 18.505C191.073 17.5017 190.408 16.72 189.545 16.16C188.705 15.6 187.737 15.32 186.64 15.32C185.543 15.32 184.563 15.6 183.7 16.16C182.86 16.72 182.195 17.5017 181.705 18.505C181.238 19.485 181.005 20.5817 181.005 21.795C181.005 23.0317 181.238 24.14 181.705 25.12C182.195 26.1 182.86 26.87 183.7 27.43C184.563 27.99 185.543 28.27 186.64 28.27Z" fill="#16133D"/>
</svg>
