<svg width="25" height="37" viewBox="0 0 25 37" fill="none" xmlns="http://www.w3.org/2000/svg">
<path d="M20.8307 0.584961H3.20472C1.43764 0.584961 0 1.92989 0 3.58302V33.5636C0 35.2168 1.43764 36.5617 3.20472 36.5617H20.8307C22.5978 36.5617 24.0354 35.2168 24.0354 33.5636V3.58302C24.0354 1.92989 22.5978 0.584961 20.8307 0.584961ZM20.8307 35.3625H3.20472C2.14452 35.3625 1.28189 34.5556 1.28189 33.5636V3.58302C1.28189 2.59111 2.14452 1.78419 3.20472 1.78419H20.8307C21.8909 1.78419 22.7535 2.59111 22.7535 3.58302V30.1159H4.40649C4.05253 30.1159 3.76555 30.3843 3.76555 30.7155C3.76555 31.0466 4.05253 31.3151 4.40649 31.3151H22.7535V33.5636C22.7535 34.5556 21.8909 35.3625 20.8307 35.3625ZM13.4598 33.1889C13.4598 33.52 13.1728 33.7885 12.8189 33.7885H11.2165C10.8626 33.7885 10.5756 33.52 10.5756 33.1889C10.5756 32.8577 10.8626 32.5893 11.2165 32.5893H12.8189C13.1728 32.5893 13.4598 32.8577 13.4598 33.1889ZM7.1289 24.2697H16.9065C18.0027 24.2697 18.857 23.3781 18.7384 22.3592L17.8812 14.9933C17.7792 14.1169 16.9916 13.456 16.0493 13.456H15.456V12.3459C15.4559 10.5723 13.9135 9.12944 12.0177 9.12944C10.1219 9.12944 8.57952 10.5723 8.57952 12.3459V13.4559H7.98616C7.04381 13.4559 6.25633 14.1168 6.15426 14.9933L5.29708 22.3592C5.17843 23.3786 6.03337 24.2697 7.1289 24.2697ZM6.57136 22.489L7.42854 15.1231C7.45963 14.8563 7.69926 14.6552 7.98608 14.6552H8.57944V15.5908C8.57944 15.9219 8.86642 16.1904 9.22038 16.1904C9.57434 16.1904 9.86132 15.9219 9.86132 15.5908V12.3459C9.86132 11.2336 10.8286 10.3287 12.0176 10.3287C13.2067 10.3287 14.1739 11.2336 14.1739 12.3459V13.456H11.4015C11.0476 13.456 10.7606 13.7245 10.7606 14.0556C10.7606 14.3868 11.0476 14.6552 11.4015 14.6552H14.1739V15.5908C14.1739 15.9219 14.4609 16.1904 14.8149 16.1904C15.1688 16.1904 15.4558 15.9219 15.4558 15.5908V14.6552H16.0492C16.336 14.6552 16.5756 14.8564 16.6067 15.1231L17.4639 22.489C17.4999 22.799 17.2418 23.0704 16.9063 23.0704H7.1289C6.79497 23.0704 6.53522 22.8002 6.57136 22.489Z" fill="#007FFC"/>
</svg>
