<svg width="39" height="36" viewBox="0 0 39 36" fill="none" xmlns="http://www.w3.org/2000/svg">
<path d="M31.0977 12.6093C33.5992 10.6979 32.7351 6.91784 29.6094 6.13443C28.7927 5.92974 27.9472 5.97231 27.1721 6.24851L24.6885 2.2242C23.6779 0.586544 21.1713 0.543146 20.0952 2.13988C17.0404 6.6726 12.9708 10.5277 8.13922 13.4532C7.86409 13.6195 7.7621 13.9631 7.9249 14.2427C7.95102 14.2875 12.0649 20.9525 12.0921 20.9967C12.269 21.2833 12.6608 21.3818 12.9677 21.2162C13.2742 21.0506 13.3792 20.6838 13.2023 20.3971L9.34447 14.146C13.9515 11.2648 18.0317 7.45031 21.1796 2.77945C21.7426 1.94395 23.0513 1.96988 23.5783 2.82382L32.4713 17.2337C32.999 18.0887 32.3664 19.1609 31.313 19.1992C25.4036 19.4146 19.6179 20.8286 14.3281 23.3597C14.3056 23.3704 8.30812 26.6102 7.8951 26.8333C6.82301 27.4124 5.44735 27.0675 4.8285 26.0646L1.58195 20.8038C0.963022 19.801 1.33165 18.514 2.40366 17.935L6.31104 15.8245C6.61758 15.659 6.72262 15.2922 6.54563 15.0055C6.36865 14.7186 5.97654 14.6204 5.67008 14.786L1.7627 16.8964C0.0785755 17.806 -0.500533 19.8279 0.471805 21.4035L3.71843 26.6641C4.69085 28.2398 6.85209 28.7814 8.53622 27.8718L8.68404 27.7919L12.6924 34.2869C13.2681 35.2198 14.5412 35.5393 15.539 35.0005L16.9449 34.2411C17.9424 33.7024 18.2836 32.5113 17.7077 31.5781L14.8668 26.975C14.6898 26.6882 14.2978 26.5899 13.9913 26.7555C13.6847 26.9211 13.5797 27.2878 13.7567 27.5746L16.5975 32.1777C16.8191 32.5368 16.6879 32.9952 16.3039 33.2025L14.8981 33.9619C14.5142 34.1692 14.0242 34.0463 13.8026 33.6872L9.79427 27.1923L14.9264 24.4203C19.9484 22.0199 25.5353 20.6099 31.363 20.3975C33.3827 20.3238 34.5907 18.2689 33.5815 16.634L31.0977 12.6093ZM30.9147 8.46788C31.5474 9.49324 31.3201 10.7656 30.4442 11.5503L27.8255 7.307C28.9735 6.99197 30.2717 7.42595 30.9147 8.46788ZM37.1837 5.80202L35.5253 6.69778C35.2186 6.86343 34.8267 6.76502 34.6498 6.47832C34.4727 6.19155 34.5778 5.8248 34.8844 5.65923L36.5428 4.76346C36.8496 4.59782 37.2414 4.69623 37.4183 4.98293C37.5953 5.2697 37.4903 5.63644 37.1837 5.80202ZM30.0516 2.38445L30.4561 0.972628C30.5477 0.652728 30.899 0.463021 31.2411 0.548618C31.5831 0.634365 31.786 0.963184 31.6943 1.28301L31.2899 2.69483C31.1984 3.01391 30.8478 3.20459 30.5048 3.11884C30.1629 3.03309 29.96 2.70435 30.0516 2.38445ZM38.4347 12.2047C38.3579 12.4726 38.099 12.6493 37.8159 12.6493C37.6999 12.6493 37.781 12.6617 36.1404 12.2504C35.7985 12.1646 35.5955 11.8359 35.6872 11.516C35.7788 11.1961 36.1303 11.0065 36.4722 11.092L37.9814 11.4703C38.3233 11.556 38.5263 11.8848 38.4347 12.2047Z" fill="#007FFC"/>
</svg>
